# xmcd
#
# Track frame offsets:
#	150
#	15285
#	30481
#	47616
#	65024
#	83356
#	98282
#	114127
#	129468
#	143740
#
# Disc length: 2168 seconds
#
# Revision: 1
# Processed by: cddbd v1.5.2PL0 Copyright (c) Steve Scherf et al.
# Submitted via: EasyCDDAExtractor 15.3.0.1
#
DISCID=6508760a
DTITLE=Nek - Nuevas Direcciones
DYEAR=2009
DGENRE=Latin
TTITLE0=Sube Ya El Volumen
TTITLE1=Si No Amas
TTITLE2=Deseo Que Ya No Puede Ser
TTITLE3=Simples Emociones
TTITLE4=Eres Asi
TTITLE5=Nuevas Direcciones
TTITLE6=Una Hora Mas
TTITLE7=El Dia Llegara
TTITLE8=Mis Manos
TTITLE9=Para No Morir Jamas
EXTD=Nek Nuevas Direcciones
EXTT0=
EXTT1=
EXTT2=
EXTT3=
EXTT4=
EXTT5=
EXTT6=
EXTT7=
EXTT8=
EXTT9=
PLAYORDER=
